<mxfile host="65bd71144e">
    <diagram id="Yp99EcE86TbjtTeTYBdj" name="Hospital Scenario 0">
        <mxGraphModel dx="849" dy="220" grid="1" gridSize="10" guides="1" tooltips="1" connect="1" arrows="1" fold="1" page="1" pageScale="1" pageWidth="583" pageHeight="413" background="#F1FAEE" math="0" shadow="0">
            <root>
                <mxCell id="0"/>
                <mxCell id="1" parent="0"/>
                <object label="&lt;font color=&quot;#000000&quot;&gt;&lt;font style=&quot;font-size: 8px&quot;&gt;wall_e&lt;/font&gt;&lt;br&gt;&lt;/font&gt;" type="robot" collision_tag="stopEvent" component_Claw="[80, 1]" name="wall_e" id="XaaZAw79OCWD7nJUf5TW-4">
                    <mxCell style="ellipse;whiteSpace=wrap;html=1;aspect=fixed;strokeColor=#B09500;fontColor=#ffffff;fillColor=#e3c800;" parent="1" vertex="1">
                        <mxGeometry x="500" y="65" width="30" height="30" as="geometry"/>
                    </mxCell>
                </object>
                <mxCell id="XaaZAw79OCWD7nJUf5TW-5" value="" style="verticalLabelPosition=bottom;html=1;verticalAlign=top;align=center;shape=mxgraph.floorplan.wall;fillColor=#000000;direction=south;strokeColor=#000000;fontColor=#1D3557;" parent="1" vertex="1">
                    <mxGeometry x="380" y="120" width="10" height="120" as="geometry"/>
                </mxCell>
                <mxCell id="XaaZAw79OCWD7nJUf5TW-6" value="" style="verticalLabelPosition=bottom;html=1;verticalAlign=top;align=center;shape=mxgraph.floorplan.wall;fillColor=#000000;direction=west;strokeColor=#060808;fontColor=#1D3557;" parent="1" vertex="1">
                    <mxGeometry x="20" y="30" width="550" height="10" as="geometry"/>
                </mxCell>
                <mxCell id="XaaZAw79OCWD7nJUf5TW-7" value="" style="verticalLabelPosition=bottom;html=1;verticalAlign=top;align=center;shape=mxgraph.floorplan.wall;fillColor=#060808;direction=south;strokeColor=#000000;fontColor=#1D3557;" parent="1" vertex="1">
                    <mxGeometry x="280" y="40" width="10" height="120" as="geometry"/>
                </mxCell>
                <mxCell id="20" value="" style="edgeStyle=none;html=1;" parent="1" source="XaaZAw79OCWD7nJUf5TW-8" target="CDSX7yOxOUjXz9ZWq8lS-2" edge="1">
                    <mxGeometry relative="1" as="geometry"/>
                </mxCell>
                <mxCell id="XaaZAw79OCWD7nJUf5TW-8" value="" style="verticalLabelPosition=bottom;html=1;verticalAlign=top;align=center;shape=mxgraph.floorplan.wall;fillColor=#060808;direction=west;strokeColor=#060808;fontColor=#1D3557;rotation=90;" parent="1" vertex="1">
                    <mxGeometry x="-81.25" y="218.75" width="212.5" height="10" as="geometry"/>
                </mxCell>
                <mxCell id="XaaZAw79OCWD7nJUf5TW-9" value="" style="verticalLabelPosition=bottom;html=1;verticalAlign=top;align=center;shape=mxgraph.floorplan.wall;fillColor=#000000;direction=west;strokeColor=#000000;fontColor=#1D3557;" parent="1" vertex="1">
                    <mxGeometry x="100" y="230" width="170" height="10" as="geometry"/>
                </mxCell>
                <mxCell id="XaaZAw79OCWD7nJUf5TW-10" value="" style="verticalLabelPosition=bottom;html=1;verticalAlign=top;align=center;shape=mxgraph.floorplan.wall;fillColor=#000000;direction=south;strokeColor=#000000;fontColor=#1D3557;" parent="1" vertex="1">
                    <mxGeometry x="180" y="160" width="10" height="70" as="geometry"/>
                </mxCell>
                <mxCell id="XaaZAw79OCWD7nJUf5TW-13" value="" style="verticalLabelPosition=bottom;html=1;verticalAlign=top;align=center;shape=mxgraph.floorplan.wall;fillColor=#060808;direction=west;strokeColor=#060808;fontColor=#1D3557;" parent="1" vertex="1">
                    <mxGeometry x="30" y="320" width="450" height="10" as="geometry"/>
                </mxCell>
                <object label="" type="map-path" id="Y7Bzf0jI6VJ8z7jc9NQ7-1">
                    <mxCell style="endArrow=classic;html=1;exitX=0;exitY=0.5;exitDx=0;exitDy=0;labelBackgroundColor=#F1FAEE;fontColor=#1D3557;strokeColor=#000000;" parent="1" source="XaaZAw79OCWD7nJUf5TW-4" edge="1">
                        <mxGeometry width="50" height="50" relative="1" as="geometry">
                            <mxPoint x="490" y="80" as="sourcePoint"/>
                            <mxPoint x="518" y="230" as="targetPoint"/>
                            <Array as="points">
                                <mxPoint x="360" y="80"/>
                                <mxPoint x="360" y="280"/>
                                <mxPoint x="518" y="280"/>
                            </Array>
                        </mxGeometry>
                    </mxCell>
                </object>
                <mxCell id="Y7Bzf0jI6VJ8z7jc9NQ7-2" value="" style="rounded=0;whiteSpace=wrap;html=1;fillColor=#CCFF99;strokeColor=#000000;fontColor=#1D3557;" parent="1" vertex="1">
                    <mxGeometry x="480" y="180" width="77" height="25" as="geometry"/>
                </mxCell>
                <object label="" type="map-path" id="CDSX7yOxOUjXz9ZWq8lS-1">
                    <mxCell style="endArrow=classic;html=1;labelBackgroundColor=#F1FAEE;fontColor=#1D3557;strokeColor=#000000;" parent="1" edge="1">
                        <mxGeometry width="50" height="50" relative="1" as="geometry">
                            <mxPoint x="500" y="280" as="sourcePoint"/>
                            <mxPoint x="80" y="230" as="targetPoint"/>
                            <Array as="points">
                                <mxPoint x="80" y="280"/>
                            </Array>
                        </mxGeometry>
                    </mxCell>
                </object>
                <mxCell id="CDSX7yOxOUjXz9ZWq8lS-2" value="" style="verticalLabelPosition=bottom;html=1;verticalAlign=top;align=center;shape=mxgraph.floorplan.wall;fillColor=#060808;direction=south;strokeColor=#060808;fontColor=#1D3557;" parent="1" vertex="1">
                    <mxGeometry x="20" y="40" width="10" height="80" as="geometry"/>
                </mxCell>
                <object label="" type="map-path" id="CDSX7yOxOUjXz9ZWq8lS-3">
                    <mxCell style="endArrow=classic;html=1;labelBackgroundColor=#F1FAEE;fontColor=#1D3557;strokeColor=#000000;" parent="1" edge="1">
                        <mxGeometry width="50" height="50" relative="1" as="geometry">
                            <mxPoint x="360" y="194.76" as="sourcePoint"/>
                            <mxPoint x="200" y="195" as="targetPoint"/>
                        </mxGeometry>
                    </mxCell>
                </object>
                <object label="" type="pickable" name="medicine" weight="0.2" id="CDSX7yOxOUjXz9ZWq8lS-4">
                    <mxCell style="rounded=0;whiteSpace=wrap;html=1;fillColor=#e51400;strokeColor=#B20000;fontColor=#ffffff;" parent="1" vertex="1">
                        <mxGeometry x="512.5" y="193" width="12" height="12" as="geometry"/>
                    </mxCell>
                </object>
                <mxCell id="eMFEXRY4Y2-7gtaYJtUj-2" value="" style="verticalLabelPosition=middle;html=1;verticalAlign=middle;align=center;shape=mxgraph.floorplan.wallU;fillColor=#000000;rotation=90;labelPosition=center;strokeColor=#060808;fontColor=#1D3557;" parent="1" vertex="1">
                    <mxGeometry x="438.5" y="191.5" width="170" height="107" as="geometry"/>
                </mxCell>
                <mxCell id="eMFEXRY4Y2-7gtaYJtUj-3" value="" style="verticalLabelPosition=bottom;html=1;verticalAlign=top;align=center;shape=mxgraph.floorplan.wall;fillColor=#000000;direction=south;strokeColor=#060808;fontColor=#1D3557;" parent="1" vertex="1">
                    <mxGeometry x="557" y="40" width="10" height="120" as="geometry"/>
                </mxCell>
                <object label="" type="map-path" id="MtlUYL0zB10NUilJHkJb-1">
                    <mxCell style="endArrow=classic;html=1;labelBackgroundColor=#F1FAEE;fontColor=#1D3557;strokeColor=#000000;" parent="1" edge="1">
                        <mxGeometry width="50" height="50" relative="1" as="geometry">
                            <mxPoint x="80" y="280" as="sourcePoint"/>
                            <mxPoint x="490" y="80" as="targetPoint"/>
                            <Array as="points">
                                <mxPoint x="360" y="280"/>
                                <mxPoint x="360" y="80"/>
                            </Array>
                        </mxGeometry>
                    </mxCell>
                </object>
                <object label="" type="map-path" id="16">
                    <mxCell style="endArrow=classic;html=1;labelBackgroundColor=#F1FAEE;fontColor=#1D3557;strokeColor=#000000;" parent="1" edge="1">
                        <mxGeometry width="50" height="50" relative="1" as="geometry">
                            <mxPoint x="230" y="195" as="sourcePoint"/>
                            <mxPoint x="230" y="80" as="targetPoint"/>
                        </mxGeometry>
                    </mxCell>
                </object>
                <object label="" type="map-path" id="17">
                    <mxCell style="endArrow=classic;html=1;labelBackgroundColor=#F1FAEE;fontColor=#1D3557;strokeColor=#000000;" parent="1" edge="1">
                        <mxGeometry width="50" height="50" relative="1" as="geometry">
                            <mxPoint x="230" y="130" as="sourcePoint"/>
                            <mxPoint x="40" y="130" as="targetPoint"/>
                        </mxGeometry>
                    </mxCell>
                </object>
                <object label="" type="map-path" id="18">
                    <mxCell style="endArrow=classic;html=1;labelBackgroundColor=#F1FAEE;fontColor=#1D3557;strokeColor=#000000;" parent="1" edge="1">
                        <mxGeometry width="50" height="50" relative="1" as="geometry">
                            <mxPoint x="80" y="130" as="sourcePoint"/>
                            <mxPoint x="80" y="200" as="targetPoint"/>
                        </mxGeometry>
                    </mxCell>
                </object>
                <object label="" type="map-path" id="19">
                    <mxCell style="endArrow=classic;html=1;labelBackgroundColor=#F1FAEE;fontColor=#1D3557;strokeColor=#000000;" parent="1" edge="1">
                        <mxGeometry width="50" height="50" relative="1" as="geometry">
                            <mxPoint x="439" y="80" as="sourcePoint"/>
                            <mxPoint x="439" y="280" as="targetPoint"/>
                        </mxGeometry>
                    </mxCell>
                </object>
            </root>
        </mxGraphModel>
    </diagram>
</mxfile>